<svg width="20" height="21" viewBox="0 0 20 21" fill="none" xmlns="http://www.w3.org/2000/svg">
<path d="M16.0583 4.94167C14.95 4.425 13.75 4.05 12.5 3.83333C12.478 3.83365 12.457 3.84263 12.4417 3.85833C12.2917 4.13333 12.1167 4.49167 12 4.76667C10.6742 4.56679 9.32584 4.56679 8 4.76667C7.88333 4.48333 7.70833 4.13333 7.55 3.85833C7.54166 3.84167 7.51666 3.83333 7.49166 3.83333C6.24166 4.05 5.05 4.425 3.93333 4.94167C3.925 4.94167 3.91666 4.95 3.90833 4.95833C1.64166 8.35 1.01666 11.65 1.325 14.9167C1.325 14.9333 1.33333 14.95 1.35 14.9583C2.85 16.0583 4.29166 16.725 5.71666 17.1667C5.74166 17.175 5.76666 17.1667 5.775 17.15C6.10833 16.6917 6.40833 16.2083 6.66666 15.7C6.68333 15.6667 6.66666 15.6333 6.63333 15.625C6.15833 15.4417 5.70833 15.225 5.26666 14.975C5.23333 14.9583 5.23333 14.9083 5.25833 14.8833C5.35 14.8167 5.44166 14.7417 5.53333 14.675C5.55 14.6583 5.575 14.6583 5.59166 14.6667C8.45833 15.975 11.55 15.975 14.3833 14.6667C14.4 14.6583 14.425 14.6583 14.4417 14.675C14.5333 14.75 14.625 14.8167 14.7167 14.8917C14.75 14.9167 14.75 14.9667 14.7083 14.9833C14.275 15.2417 13.8167 15.45 13.3417 15.6333C13.3083 15.6417 13.3 15.6833 13.3083 15.7083C13.575 16.2167 13.875 16.7 14.2 17.1583C14.225 17.1667 14.25 17.175 14.275 17.1667C15.7083 16.725 17.15 16.0583 18.65 14.9583C18.6667 14.95 18.675 14.9333 18.675 14.9167C19.0417 11.1417 18.0667 7.86667 16.0917 4.95833C16.0833 4.95 16.075 4.94167 16.0583 4.94167ZM7.1 12.925C6.24166 12.925 5.525 12.1333 5.525 11.1583C5.525 10.1833 6.225 9.39167 7.1 9.39167C7.98333 9.39167 8.68333 10.1917 8.675 11.1583C8.675 12.1333 7.975 12.925 7.1 12.925ZM12.9083 12.925C12.05 12.925 11.3333 12.1333 11.3333 11.1583C11.3333 10.1833 12.0333 9.39167 12.9083 9.39167C13.7917 9.39167 14.4917 10.1917 14.4833 11.1583C14.4833 12.1333 13.7917 12.925 12.9083 12.925Z" fill="white" fill-opacity="0.4"/>
</svg>
