<svg width="360" height="124" viewBox="0 0 360 124" fill="none" xmlns="http://www.w3.org/2000/svg">
<g filter="url(#filter0_n_9_576)">
<rect width="360" height="124" fill="#1B1B23"/>
<g clip-path="url(#clip0_9_576)">
<mask id="mask0_9_576" style="mask-type:luminance" maskUnits="userSpaceOnUse" x="89" y="33" width="182" height="58">
<path d="M270.496 33.5H89.5V90.5H270.496V33.5Z" fill="white"/>
</mask>
<g mask="url(#mask0_9_576)">
<path d="M100.413 82.0792L91.2009 72.9131L89.5 74.6053L98.7121 83.7717L100.413 82.0792Z" fill="#3F70E4"/>
<path d="M98.0393 79.7188L93.5771 75.2756L97.0771 70.7588L102.579 76.2329L98.0393 79.7188Z" fill="#3F70E4"/>
<path d="M107.594 78.9832L94.3171 65.7696L99.99 62.1972L111.184 73.3352L107.594 78.9832Z" fill="#3F70E4"/>
<path d="M129.187 52.3501L110.164 70.0773L103.264 63.2089L115 50.7406L116.224 52.8802L116.702 48.9318L121.077 44.2832L129.187 52.3501Z" fill="#3F70E4"/>
<path d="M129.158 52.382L121.054 44.3119L130.349 42.4004L131.079 43.1264L129.158 52.382Z" fill="#3F70E4"/>
<path d="M133.439 58.1942L139.763 64.4868L140.929 63.326L134.605 57.0334L133.439 58.1942Z" fill="#D33838"/>
<path d="M135.071 59.8135L138.135 62.8622L135.729 65.9623L131.955 62.2068L135.071 59.8135Z" fill="#D33838"/>
<path d="M128.513 60.3213L137.624 69.3873L133.73 71.8418L126.046 64.1957L128.513 60.3213Z" fill="#D33838"/>
<path d="M126.747 66.4316L131.483 71.1446L119.256 84.1363L113.689 78.5978L126.747 66.4316Z" fill="#D33838"/>
<path d="M119.272 84.1134L116.609 84.6628L116.076 83.4936C116.076 83.4936 115.892 84.1808 115.718 84.846L112.892 85.4274L112.389 84.9294L113.709 78.5781L119.272 84.1134Z" fill="#D33838"/>
<path d="M113.011 42.4004L117.603 45.682L115.215 44.7705L113.011 42.4004Z" fill="#3F70E4"/>
<path d="M115.766 37.4785L128.807 41.3072L123.113 42.2187L115.766 37.4785Z" fill="#3F70E4"/>
<path d="M128.44 86.5217L121.827 84.2656L123.099 82.5107L128.44 86.5217Z" fill="#D33838"/>
<path d="M164.299 57.3515C164.299 55.3792 163.15 54.0897 160.698 54.0897H156.638V60.6891H160.698C163.15 60.6891 164.299 59.4375 164.299 57.3515ZM150.089 48.7039H161.081C167.669 48.7039 170.963 52.4588 170.963 57.086C170.963 60.4236 169.124 63.5716 164.988 64.7853L171.193 75.3292H163.801L158.209 65.2784H156.638V75.3292H150.089V48.7039ZM196.178 54.1655V75.3292H189.629V72.4467C188.327 74.2672 186.029 75.5568 183.156 75.5568C178.215 75.5568 174.883 72.1812 174.883 66.53V54.1655H181.394V65.6576C181.394 68.5401 183.041 70.1331 185.492 70.1331C188.02 70.1331 189.629 68.5401 189.629 65.6576V54.1655H196.178ZM218.233 69.1849C218.233 72.8639 214.939 75.6326 209.577 75.6326C203.87 75.6326 200.04 72.4846 199.734 68.3884H206.207C206.36 69.8676 207.7 70.8537 209.5 70.8537C211.186 70.8537 212.067 70.0952 212.067 69.147C212.067 65.7335 200.423 68.1988 200.423 60.4236C200.423 56.8205 203.525 53.8621 209.117 53.8621C214.633 53.8621 217.697 56.8963 218.118 61.0684H212.067C211.875 59.6271 210.764 58.6789 208.926 58.6789C207.394 58.6789 206.551 59.2858 206.551 60.3098C206.551 63.6854 218.118 61.2959 218.233 69.1849ZM223.274 67.9712V59.5513H220.67V54.1655H223.274V49.0073H229.824V54.1655H234.113V59.5513H229.824V68.0471C229.824 69.2987 230.36 69.8297 231.815 69.8297H234.152V75.3292H230.819C226.377 75.3292 223.274 73.4708 223.274 67.9712ZM237.8 75.3292V47.2627H244.349V75.3292H237.8ZM258.518 59.0582C256.373 59.0582 254.726 60.3477 254.343 62.6993H262.54C262.54 60.3857 260.701 59.0582 258.518 59.0582ZM268.744 68.3126C267.71 72.4467 263.918 75.6326 258.594 75.6326C252.313 75.6326 247.794 71.4606 247.794 64.7474C247.794 58.0342 252.237 53.8621 258.594 53.8621C264.838 53.8621 269.242 57.9583 269.242 64.406C269.242 65.0129 269.204 65.6576 269.127 66.3024H254.305C254.535 69.0711 256.258 70.3607 258.365 70.3607C260.203 70.3607 261.237 69.4504 261.773 68.3126H268.744Z" fill="white"/>
</g>
</g>
</g>
<defs>
<filter id="filter0_n_9_576" x="0" y="0" width="360" height="124" filterUnits="userSpaceOnUse" color-interpolation-filters="sRGB">
<feFlood flood-opacity="0" result="BackgroundImageFix"/>
<feBlend mode="normal" in="SourceGraphic" in2="BackgroundImageFix" result="shape"/>
<feTurbulence type="fractalNoise" baseFrequency="0.066666670143604279 0.066666670143604279" stitchTiles="stitch" numOctaves="3" result="noise" seed="7605" />
<feColorMatrix in="noise" type="luminanceToAlpha" result="alphaNoise" />
<feComponentTransfer in="alphaNoise" result="coloredNoise1">
<feFuncA type="discrete" tableValues="0 0 0 0 0 0 0 0 0 0 0 0 0 0 0 0 0 0 0 0 0 1 1 1 1 1 1 1 1 0 0 0 0 0 0 0 0 0 0 0 0 0 0 0 0 0 0 0 0 0 0 0 0 0 0 0 0 0 0 0 0 0 0 0 0 0 0 0 0 0 0 0 0 0 0 0 0 0 0 0 0 0 0 0 0 0 0 0 0 0 0 0 0 0 0 0 0 0 0 0 "/>
</feComponentTransfer>
<feComposite operator="in" in2="shape" in="coloredNoise1" result="noise1Clipped" />
<feFlood flood-color="rgba(0, 0, 0, 0.15)" result="color1Flood" />
<feComposite operator="in" in2="noise1Clipped" in="color1Flood" result="color1" />
<feMerge result="effect1_noise_9_576">
<feMergeNode in="shape" />
<feMergeNode in="color1" />
</feMerge>
</filter>
<clipPath id="clip0_9_576">
<rect width="181" height="57" fill="white" transform="translate(89.5 33.5)"/>
</clipPath>
</defs>
</svg>
